# xmcd
#
# Track frame offsets: 
#        150
#        19313
#        38886
#        56758
#        80715
#        93712
#        118136
#        146266
#        162014
#        182317
#        200555
#
# Disc length: 2998 seconds
#
# Revision: 0
# Processed by: cddbd v1.5.2PL0 Copyright (c) Steve Scherf et al.
# Submitted via: ExactAudioCopy v0.95b4
#
DISCID=940bb40b
DTITLE=Zapruder Sequence - Pretty Girl Charm Lies
DYEAR=2007
DGENRE=Rock
TTITLE0=Straight Lines
TTITLE1=Marianne
TTITLE2=Shots
TTITLE3=Nobody's Baby
TTITLE4=Cougar
TTITLE5=My Reply
TTITLE6=Mason Jar
TTITLE7=Makin' Eyes
TTITLE8=Crossfire
TTITLE9=Foreigner
TTITLE10=Surf City
EXTD=
EXTT0=
EXTT1=
EXTT2=
EXTT3=
EXTT4=
EXTT5=
EXTT6=
EXTT7=
EXTT8=
EXTT9=
EXTT10=
PLAYORDER=
